<svg width="251.938" height="24.313" viewBox="0 0 251.938 24.313" xmlns="http://www.w3.org/2000/svg">
    <g id="svgGroup" stroke-linecap="round" fill-rule="evenodd" font-size="9pt" stroke="#000" stroke-width="0.25mm"
       fill="#000" style="stroke:#000;stroke-width:0.25mm;fill:#000">
        <path d="M 5.656 18.844 L 6.688 22.594 L 7.719 18.844 L 13.094 1.25 L 14.031 1.25 L 19.375 18.844 L 20.391 22.594 L 21.453 18.844 L 26.141 1.25 L 27.063 1.25 L 20.938 24 L 19.984 24 L 14.344 5.031 L 13.547 2.625 L 12.781 5.031 L 7.094 24 L 6.141 24 L 0 1.25 L 0.938 1.25 L 5.656 18.844 Z M 187.703 7.094 L 191.156 19.109 L 192.078 22.75 L 197.031 7.094 L 197.891 7.094 L 202.813 22.75 L 203.766 19.109 L 207.203 7.094 L 208.188 7.094 L 203.266 24 L 202.422 24 L 198.25 11.297 L 197.453 8.266 L 196.594 11.297 L 192.484 24 L 191.641 24 L 186.734 7.094 L 187.703 7.094 Z M 62.656 1.25 L 70.297 21.781 L 70.75 23.156 L 71.203 21.781 L 78.844 1.25 L 79.766 1.25 L 71.266 24 L 70.234 24 L 61.734 1.25 L 62.656 1.25 Z M 223.594 11.609 L 222.734 11.609 A 3.42 3.42 0 0 0 221.594 9.022 A 4.719 4.719 0 0 0 221.297 8.766 A 5.072 5.072 0 0 0 219.289 7.815 Q 218.547 7.638 217.679 7.626 A 9.226 9.226 0 0 0 217.547 7.625 A 8.228 8.228 0 0 0 216.134 7.739 Q 215.362 7.874 214.742 8.168 A 4.169 4.169 0 0 0 214.031 8.594 A 3.589 3.589 0 0 0 213.267 9.353 A 2.757 2.757 0 0 0 212.734 11.016 A 4.348 4.348 0 0 0 212.787 11.711 Q 212.893 12.369 213.219 12.805 A 2.877 2.877 0 0 0 213.69 13.292 Q 213.938 13.498 214.257 13.689 A 6.631 6.631 0 0 0 214.797 13.977 Q 215.891 14.5 217.984 14.984 Q 220.078 15.469 221.297 16.125 A 5.955 5.955 0 0 1 222.116 16.651 Q 222.551 16.987 222.849 17.371 A 3.295 3.295 0 0 1 223.062 17.68 A 3.641 3.641 0 0 1 223.516 18.869 A 5.124 5.124 0 0 1 223.609 19.875 Q 223.609 21.805 222.082 23.007 A 5.092 5.092 0 0 1 221.969 23.094 Q 220.469 24.208 218.12 24.304 A 11.026 11.026 0 0 1 217.672 24.312 A 10.233 10.233 0 0 1 215.77 24.146 Q 214.655 23.935 213.769 23.457 A 5.689 5.689 0 0 1 213.086 23.023 A 4.591 4.591 0 0 1 211.995 21.909 A 3.85 3.85 0 0 1 211.344 19.703 L 212.188 19.703 A 3.753 3.753 0 0 0 212.572 21.155 A 3.545 3.545 0 0 0 213.758 22.477 A 5.152 5.152 0 0 0 215.278 23.172 Q 215.963 23.367 216.78 23.434 A 10.93 10.93 0 0 0 217.672 23.469 Q 219.626 23.469 220.946 22.684 A 4.645 4.645 0 0 0 221.352 22.414 A 4.104 4.104 0 0 0 222.142 21.655 A 2.847 2.847 0 0 0 222.766 19.859 Q 222.766 16.781 217.516 15.672 A 21.356 21.356 0 0 1 215.974 15.288 Q 214.491 14.854 213.611 14.3 A 4.172 4.172 0 0 1 213.125 13.945 A 3.456 3.456 0 0 1 211.927 11.657 A 4.952 4.952 0 0 1 211.891 11.047 A 3.623 3.623 0 0 1 213.093 8.295 A 4.907 4.907 0 0 1 213.461 7.984 Q 215.031 6.781 217.547 6.781 A 9.324 9.324 0 0 1 219.373 6.95 Q 220.876 7.25 221.938 8.086 A 4.178 4.178 0 0 1 223.574 11.135 A 5.568 5.568 0 0 1 223.594 11.609 Z M 88.797 15.594 L 88.797 15.375 A 15.508 15.508 0 0 1 88.98 12.91 Q 89.191 11.603 89.644 10.548 A 7.257 7.257 0 0 1 90.5 9.055 A 5.421 5.421 0 0 1 94.448 6.817 A 7.178 7.178 0 0 1 95.172 6.781 A 7.179 7.179 0 0 1 97.068 7.023 A 6.003 6.003 0 0 1 98.539 7.641 A 5.995 5.995 0 0 1 100.402 9.381 A 7.661 7.661 0 0 1 100.906 10.203 L 100.906 0 L 101.75 0 L 101.75 24 L 100.906 24 L 100.906 21.297 A 5.888 5.888 0 0 1 98.547 23.523 A 6.877 6.877 0 0 1 96.068 24.263 A 8.535 8.535 0 0 1 95.141 24.313 A 5.947 5.947 0 0 1 92.882 23.898 Q 91.485 23.33 90.5 21.984 A 8.079 8.079 0 0 1 89.285 19.445 Q 88.965 18.344 88.855 17.03 A 17.228 17.228 0 0 1 88.797 15.594 Z M 59.281 15.438 L 59.281 15.703 Q 59.281 18.673 58.32 20.726 A 7.543 7.543 0 0 1 57.578 21.984 Q 55.944 24.219 53.172 24.309 A 7.229 7.229 0 0 1 52.938 24.312 A 7.886 7.886 0 0 1 50.974 24.077 A 6.613 6.613 0 0 1 49.531 23.523 A 5.957 5.957 0 0 1 47.172 21.328 L 47.172 24 L 46.328 24 L 46.328 0 L 47.172 0 L 47.172 10.172 A 6.875 6.875 0 0 1 48.279 8.625 A 5.806 5.806 0 0 1 49.523 7.641 A 6.221 6.221 0 0 1 51.96 6.837 A 7.88 7.88 0 0 1 52.906 6.781 A 6.212 6.212 0 0 1 55.109 7.156 A 5.455 5.455 0 0 1 57.578 9.055 A 7.697 7.697 0 0 1 58.757 11.444 Q 59.281 13.158 59.281 15.438 Z M 28.906 15.922 L 28.906 15.219 A 10.19 10.19 0 0 1 29.347 12.189 A 9.236 9.236 0 0 1 29.844 10.922 A 7.963 7.963 0 0 1 31.16 8.954 A 6.966 6.966 0 0 1 32.422 7.875 A 6.321 6.321 0 0 1 36 6.781 A 6.465 6.465 0 0 1 38.351 7.195 A 5.851 5.851 0 0 1 40.625 8.797 Q 42.422 10.813 42.422 14.094 L 42.422 14.984 L 29.75 14.984 L 29.75 15.906 A 8.516 8.516 0 0 0 30.617 19.727 Q 31.484 21.484 33.008 22.484 A 5.905 5.905 0 0 0 36.312 23.484 A 8.505 8.505 0 0 0 37.612 23.39 Q 38.333 23.279 38.936 23.035 A 4.922 4.922 0 0 0 39.211 22.914 A 5.585 5.585 0 0 0 40.788 21.775 A 6.98 6.98 0 0 0 41.328 21.156 L 41.922 21.578 A 6.128 6.128 0 0 1 37.43 24.246 A 9.048 9.048 0 0 1 36.313 24.313 A 6.802 6.802 0 0 1 32.555 23.211 A 7.53 7.53 0 0 1 29.936 20.307 A 8.9 8.9 0 0 1 29.875 20.187 A 9.132 9.132 0 0 1 28.93 16.644 A 10.889 10.889 0 0 1 28.906 15.922 Z M 105.766 15.922 L 105.766 15.219 A 10.19 10.19 0 0 1 106.206 12.189 A 9.236 9.236 0 0 1 106.703 10.922 A 7.963 7.963 0 0 1 108.019 8.954 A 6.966 6.966 0 0 1 109.281 7.875 A 6.321 6.321 0 0 1 112.859 6.781 A 6.465 6.465 0 0 1 115.211 7.195 A 5.851 5.851 0 0 1 117.484 8.797 Q 119.281 10.813 119.281 14.094 L 119.281 14.984 L 106.609 14.984 L 106.609 15.906 A 8.516 8.516 0 0 0 107.477 19.727 Q 108.344 21.484 109.867 22.484 A 5.905 5.905 0 0 0 113.172 23.484 A 8.505 8.505 0 0 0 114.472 23.39 Q 115.192 23.279 115.795 23.035 A 4.922 4.922 0 0 0 116.07 22.914 A 5.585 5.585 0 0 0 117.647 21.775 A 6.98 6.98 0 0 0 118.187 21.156 L 118.781 21.578 A 6.128 6.128 0 0 1 114.289 24.246 A 9.048 9.048 0 0 1 113.172 24.313 A 6.802 6.802 0 0 1 109.414 23.211 A 7.53 7.53 0 0 1 106.796 20.307 A 8.9 8.9 0 0 1 106.734 20.187 A 9.132 9.132 0 0 1 105.789 16.644 A 10.889 10.889 0 0 1 105.766 15.922 Z M 226.938 15.922 L 226.938 15.219 A 10.19 10.19 0 0 1 227.378 12.189 A 9.236 9.236 0 0 1 227.875 10.922 A 7.963 7.963 0 0 1 229.191 8.954 A 6.966 6.966 0 0 1 230.453 7.875 A 6.321 6.321 0 0 1 234.031 6.781 A 6.465 6.465 0 0 1 236.382 7.195 A 5.851 5.851 0 0 1 238.656 8.797 Q 240.453 10.813 240.453 14.094 L 240.453 14.984 L 227.781 14.984 L 227.781 15.906 A 8.516 8.516 0 0 0 228.648 19.727 Q 229.516 21.484 231.039 22.484 A 5.905 5.905 0 0 0 234.344 23.484 A 8.505 8.505 0 0 0 235.644 23.39 Q 236.364 23.279 236.967 23.035 A 4.922 4.922 0 0 0 237.242 22.914 A 5.585 5.585 0 0 0 238.819 21.775 A 6.98 6.98 0 0 0 239.359 21.156 L 239.953 21.578 A 6.128 6.128 0 0 1 235.461 24.246 A 9.048 9.048 0 0 1 234.344 24.313 A 6.802 6.802 0 0 1 230.586 23.211 A 7.53 7.53 0 0 1 227.968 20.307 A 8.9 8.9 0 0 1 227.906 20.187 A 9.132 9.132 0 0 1 226.961 16.644 A 10.889 10.889 0 0 1 226.937 15.922 Z M 148.594 24 L 141.266 24 L 141.266 1.25 L 147.25 1.25 Q 149.55 1.25 151.148 1.836 A 5.925 5.925 0 0 1 152.805 2.742 A 4.836 4.836 0 0 1 154.581 5.8 A 7.297 7.297 0 0 1 154.687 7.078 A 6.691 6.691 0 0 1 154.515 8.638 A 4.869 4.869 0 0 1 153.641 10.5 Q 152.594 11.859 150.688 12.234 Q 152.844 12.516 154.281 14.102 Q 155.719 15.688 155.719 17.734 A 7.217 7.217 0 0 1 155.454 19.742 A 5.39 5.39 0 0 1 153.836 22.32 A 6.24 6.24 0 0 1 151.356 23.649 Q 150.436 23.912 149.342 23.978 A 12.467 12.467 0 0 1 148.594 24 Z M 167.672 6.953 L 167.578 7.703 L 166.484 7.609 Q 164.328 7.609 162.875 9.008 A 5.982 5.982 0 0 0 161.543 10.966 Q 161.163 11.841 160.969 12.922 L 160.969 24 L 160.125 24 L 160.125 7.094 L 160.969 7.094 L 160.969 10.609 A 6.728 6.728 0 0 1 161.943 8.877 A 5.833 5.833 0 0 1 163.031 7.813 Q 164.406 6.781 166.484 6.781 Q 166.993 6.781 167.366 6.864 A 2.194 2.194 0 0 1 167.672 6.953 Z M 251.938 6.953 L 251.844 7.703 L 250.75 7.609 Q 248.594 7.609 247.141 9.008 A 5.982 5.982 0 0 0 245.808 10.966 Q 245.429 11.841 245.234 12.922 L 245.234 24 L 244.391 24 L 244.391 7.094 L 245.234 7.094 L 245.234 10.609 A 6.728 6.728 0 0 1 246.209 8.877 A 5.833 5.833 0 0 1 247.297 7.813 Q 248.672 6.781 250.75 6.781 Q 251.258 6.781 251.632 6.864 A 2.194 2.194 0 0 1 251.938 6.953 Z M 121.938 15.969 L 121.938 15.219 A 10.838 10.838 0 0 1 122.224 12.683 A 9.021 9.021 0 0 1 122.867 10.867 A 7.414 7.414 0 0 1 124.44 8.68 A 6.925 6.925 0 0 1 125.492 7.859 A 6.938 6.938 0 0 1 129.062 6.785 A 8.339 8.339 0 0 1 129.328 6.781 A 7.387 7.387 0 0 1 131.871 7.211 A 6.827 6.827 0 0 1 133.141 7.828 A 6.973 6.973 0 0 1 135.586 10.437 A 8.463 8.463 0 0 1 135.773 10.797 A 9.382 9.382 0 0 1 136.668 13.95 A 11.559 11.559 0 0 1 136.734 15.125 L 136.734 15.875 A 11.05 11.05 0 0 1 136.474 18.319 A 9.013 9.013 0 0 1 135.812 20.234 A 7.326 7.326 0 0 1 134.179 22.478 A 6.929 6.929 0 0 1 133.195 23.234 A 6.938 6.938 0 0 1 129.625 24.308 A 8.339 8.339 0 0 1 129.359 24.312 Q 127.219 24.313 125.523 23.25 A 7.058 7.058 0 0 1 123.011 20.509 A 8.451 8.451 0 0 1 122.891 20.273 A 9.372 9.372 0 0 1 122.003 17.134 A 11.516 11.516 0 0 1 121.937 15.969 Z M 169.234 15.969 L 169.234 15.219 A 10.838 10.838 0 0 1 169.52 12.683 A 9.021 9.021 0 0 1 170.164 10.867 A 7.414 7.414 0 0 1 171.736 8.68 A 6.925 6.925 0 0 1 172.789 7.859 A 6.938 6.938 0 0 1 176.359 6.785 A 8.339 8.339 0 0 1 176.625 6.781 A 7.387 7.387 0 0 1 179.168 7.211 A 6.827 6.827 0 0 1 180.438 7.828 A 6.973 6.973 0 0 1 182.883 10.437 A 8.463 8.463 0 0 1 183.07 10.797 A 9.382 9.382 0 0 1 183.965 13.95 A 11.559 11.559 0 0 1 184.031 15.125 L 184.031 15.875 A 11.05 11.05 0 0 1 183.771 18.319 A 9.013 9.013 0 0 1 183.109 20.234 A 7.326 7.326 0 0 1 181.476 22.478 A 6.929 6.929 0 0 1 180.492 23.234 A 6.938 6.938 0 0 1 176.922 24.308 A 8.339 8.339 0 0 1 176.656 24.312 Q 174.516 24.313 172.82 23.25 A 7.058 7.058 0 0 1 170.308 20.509 A 8.451 8.451 0 0 1 170.187 20.273 A 9.372 9.372 0 0 1 169.3 17.134 A 11.516 11.516 0 0 1 169.234 15.969 Z M 122.781 15.375 L 122.781 15.875 Q 122.781 17.984 123.617 19.742 A 6.999 6.999 0 0 0 124.841 21.557 A 6.231 6.231 0 0 0 125.945 22.484 A 5.978 5.978 0 0 0 129.003 23.46 A 7.278 7.278 0 0 0 129.359 23.469 A 6.249 6.249 0 0 0 131.834 22.992 A 5.947 5.947 0 0 0 134.07 21.297 Q 135.891 19.125 135.891 15.703 L 135.891 15.219 A 8.946 8.946 0 0 0 135.344 12.077 A 8.473 8.473 0 0 0 135.047 11.375 A 7.123 7.123 0 0 0 133.826 9.561 A 6.306 6.306 0 0 0 132.711 8.617 Q 131.219 7.625 129.328 7.625 A 6.156 6.156 0 0 0 126.777 8.142 A 6.008 6.008 0 0 0 124.609 9.828 A 7.829 7.829 0 0 0 122.918 13.632 A 10.71 10.71 0 0 0 122.781 15.375 Z M 170.078 15.375 L 170.078 15.875 Q 170.078 17.984 170.914 19.742 A 6.999 6.999 0 0 0 172.138 21.557 A 6.231 6.231 0 0 0 173.242 22.484 A 5.978 5.978 0 0 0 176.3 23.46 A 7.278 7.278 0 0 0 176.656 23.469 A 6.249 6.249 0 0 0 179.131 22.992 A 5.947 5.947 0 0 0 181.367 21.297 Q 183.188 19.125 183.188 15.703 L 183.188 15.219 A 8.946 8.946 0 0 0 182.641 12.077 A 8.473 8.473 0 0 0 182.344 11.375 A 7.123 7.123 0 0 0 181.123 9.561 A 6.306 6.306 0 0 0 180.008 8.617 Q 178.516 7.625 176.625 7.625 A 6.156 6.156 0 0 0 174.074 8.142 A 6.008 6.008 0 0 0 171.906 9.828 A 7.829 7.829 0 0 0 170.215 13.632 A 10.71 10.71 0 0 0 170.078 15.375 Z M 100.906 19.813 L 100.906 11.891 A 7.566 7.566 0 0 0 99.846 9.805 Q 98.228 7.625 95.156 7.625 A 5.245 5.245 0 0 0 93.272 7.95 Q 91.987 8.441 91.117 9.672 A 6.771 6.771 0 0 0 90.215 11.545 Q 89.929 12.449 89.793 13.556 A 17.721 17.721 0 0 0 89.672 15.703 A 14.705 14.705 0 0 0 89.832 17.948 Q 90.15 19.998 91.094 21.383 Q 92.423 23.332 94.789 23.46 A 6.248 6.248 0 0 0 95.125 23.469 Q 97.219 23.469 98.703 22.539 A 5.369 5.369 0 0 0 100.66 20.359 A 6.82 6.82 0 0 0 100.906 19.812 Z M 47.172 11.969 L 47.172 19.719 A 5.956 5.956 0 0 0 48.147 21.439 A 5.302 5.302 0 0 0 49.32 22.492 A 5.734 5.734 0 0 0 51.372 23.32 A 7.988 7.988 0 0 0 52.953 23.469 A 5.212 5.212 0 0 0 54.811 23.152 Q 56.118 22.657 56.984 21.391 A 7.03 7.03 0 0 0 57.878 19.483 Q 58.159 18.575 58.29 17.473 A 17.762 17.762 0 0 0 58.406 15.375 Q 58.406 12.908 57.742 11.169 A 6.773 6.773 0 0 0 56.961 9.68 A 4.751 4.751 0 0 0 55.244 8.147 Q 54.229 7.625 52.922 7.625 Q 50.797 7.625 49.32 8.719 A 5.464 5.464 0 0 0 47.82 10.446 A 7.771 7.771 0 0 0 47.172 11.969 Z M 149.016 12.766 L 142.109 12.766 L 142.109 23.156 L 148.688 23.156 Q 150.939 23.156 152.437 22.289 A 5.11 5.11 0 0 0 153.227 21.727 A 4.677 4.677 0 0 0 154.796 18.82 A 6.779 6.779 0 0 0 154.875 17.766 A 4.753 4.753 0 0 0 154.477 15.799 A 4.621 4.621 0 0 0 153.281 14.211 A 5.573 5.573 0 0 0 150.974 13.018 Q 150.14 12.8 149.156 12.769 A 10.263 10.263 0 0 0 149.016 12.766 Z M 142.109 2.094 L 142.109 11.922 L 147.563 11.922 Q 149.502 11.922 150.846 11.457 A 5.033 5.033 0 0 0 152.25 10.727 A 3.806 3.806 0 0 0 153.642 8.589 Q 153.828 7.88 153.828 7.016 Q 153.828 2.797 148.981 2.193 A 13.886 13.886 0 0 0 147.438 2.094 L 142.109 2.094 Z M 84.031 7.094 L 84.031 24 L 83.188 24 L 83.188 7.094 L 84.031 7.094 Z M 29.797 14.141 L 41.578 14.141 L 41.578 13.938 A 7.139 7.139 0 0 0 40.852 10.742 Q 40.125 9.266 38.852 8.445 A 5.153 5.153 0 0 0 36 7.625 A 5.493 5.493 0 0 0 31.975 9.293 A 6.861 6.861 0 0 0 31.812 9.461 A 7.444 7.444 0 0 0 30.004 12.904 A 9.772 9.772 0 0 0 29.797 14.141 Z M 106.656 14.141 L 118.438 14.141 L 118.438 13.938 A 7.139 7.139 0 0 0 117.711 10.742 Q 116.984 9.266 115.711 8.445 A 5.153 5.153 0 0 0 112.859 7.625 A 5.493 5.493 0 0 0 108.835 9.293 A 6.861 6.861 0 0 0 108.672 9.461 A 7.444 7.444 0 0 0 106.864 12.904 A 9.772 9.772 0 0 0 106.656 14.141 Z M 227.828 14.141 L 239.609 14.141 L 239.609 13.938 A 7.139 7.139 0 0 0 238.883 10.742 Q 238.156 9.266 236.883 8.445 A 5.153 5.153 0 0 0 234.031 7.625 A 5.493 5.493 0 0 0 230.007 9.293 A 6.861 6.861 0 0 0 229.844 9.461 A 7.444 7.444 0 0 0 228.036 12.904 A 9.772 9.772 0 0 0 227.828 14.141 Z M 82.75 1.813 Q 82.75 1.453 83 1.195 Q 83.25 0.938 83.609 0.938 A 0.841 0.841 0 0 1 84.218 1.187 A 1.041 1.041 0 0 1 84.227 1.195 A 0.861 0.861 0 0 1 84.443 1.542 A 0.876 0.876 0 0 1 84.484 1.813 Q 84.484 2.172 84.227 2.422 A 0.855 0.855 0 0 1 83.609 2.672 Q 83.25 2.672 83 2.422 A 0.828 0.828 0 0 1 82.75 1.824 A 1.023 1.023 0 0 1 82.75 1.812 Z"
              vector-effect="non-scaling-stroke"/>
    </g>
</svg>